<svg width="2522" height="1000" viewBox="0 0 2522 1000" fill="none" xmlns="http://www.w3.org/2000/svg">
<g clip-path="url(#clip0_2_2)">
<path d="M1053.52 193.662C1059.92 189.792 1066.54 187.112 1073.39 185.624C1080.24 183.987 1086.49 183.168 1092.14 183.168C1102.56 183.168 1111.2 185.252 1118.04 189.419C1124.89 193.587 1129.95 199.02 1133.23 205.718C1136.65 212.416 1138.36 219.71 1138.36 227.599C1138.36 234.892 1136.95 242.186 1134.12 249.479C1131.44 256.772 1127.35 263.471 1121.84 269.573C1116.48 275.676 1109.78 280.588 1101.75 284.309C1093.71 287.881 1084.48 289.668 1074.06 289.668C1071.98 289.668 1069.89 289.593 1067.81 289.444C1065.87 289.295 1063.86 289.072 1061.78 288.774L1061.11 281.63C1071.68 281.63 1080.46 280.141 1087.46 277.164C1094.45 274.188 1099.96 270.243 1103.98 265.331C1108.15 260.419 1111.12 255.061 1112.91 249.256C1114.7 243.451 1115.59 237.646 1115.59 231.841C1115.59 226.036 1114.32 220.677 1111.79 215.765C1109.41 210.853 1105.69 206.909 1100.63 203.932C1095.57 200.955 1089.09 199.467 1081.2 199.467C1077.78 199.467 1073.99 199.913 1069.82 200.806C1065.8 201.55 1061.56 202.741 1057.09 204.379L1053.52 193.662ZM1021.37 343.699C1021.37 338.34 1021.89 331.493 1022.93 323.158C1023.97 314.823 1025.24 305.594 1026.73 295.473C1028.22 285.351 1029.63 274.783 1030.97 263.768C1032.46 252.754 1033.72 241.739 1034.76 230.724C1035.81 219.71 1036.33 209.216 1036.33 199.243C1036.33 193.587 1036.03 188.675 1035.43 184.508C1034.99 180.191 1034.24 176.916 1033.2 174.684C1037.67 175.13 1041.76 176.693 1045.48 179.372C1049.35 182.052 1052.48 185.698 1054.86 190.313C1057.24 194.778 1058.43 200.211 1058.43 206.611C1058.43 212.714 1057.76 220.528 1056.42 230.055C1055.23 239.581 1053.74 250.298 1051.96 262.205C1050.32 273.964 1048.83 286.542 1047.49 299.938C1046.3 313.185 1045.7 326.73 1045.7 340.573C1045.7 343.997 1045.78 347.569 1045.93 351.29C1046.08 354.862 1046.45 358.583 1047.04 362.453C1045.7 362.602 1044.59 362.677 1043.7 362.677C1042.8 362.826 1041.98 362.9 1041.24 362.9C1034.84 362.9 1029.93 361.412 1026.5 358.435C1023.08 355.458 1021.37 350.546 1021.37 343.699Z" fill="#864626"/>
<path d="M1186.99 362.453C1179.11 362.453 1172.04 360.146 1165.78 355.532C1159.68 350.918 1154.84 344.517 1151.27 336.331C1147.85 327.996 1146.14 318.544 1146.14 307.976C1146.14 296.961 1147.7 286.765 1150.82 277.388C1154.1 267.862 1158.64 259.601 1164.44 252.605C1170.25 245.609 1177.02 240.176 1184.76 236.306C1192.65 232.287 1201.13 230.278 1210.21 230.278C1221.23 230.278 1229.56 233.032 1235.22 238.539C1240.88 244.046 1243.71 252.084 1243.71 262.652C1243.71 270.541 1241.55 277.685 1237.23 284.086C1232.91 290.337 1226.96 295.249 1219.37 298.822C1211.93 302.394 1203.37 304.18 1193.69 304.18C1188.93 304.18 1184.46 303.957 1180.3 303.51C1176.13 302.915 1172.11 302.171 1168.24 301.278L1168.91 293.463H1177.17C1185.8 293.463 1193.32 292.049 1199.72 289.221C1206.12 286.244 1211.11 282.076 1214.68 276.718C1218.25 271.359 1220.04 265.182 1220.04 258.187C1220.04 252.977 1218.77 248.958 1216.24 246.13C1213.86 243.302 1210.44 241.888 1205.97 241.888C1200.32 241.888 1195.26 244.046 1190.79 248.363C1186.32 252.53 1182.53 258.038 1179.4 264.885C1176.28 271.583 1173.9 278.802 1172.26 286.542C1170.62 294.282 1169.8 301.65 1169.8 308.645C1169.8 321.744 1171.74 331.642 1175.61 338.34C1179.63 344.89 1185.51 348.164 1193.25 348.164C1207.83 348.164 1219.82 340.871 1229.19 326.284C1234.7 327.177 1237.45 329.186 1237.45 332.312C1231.05 342.731 1223.76 350.397 1215.57 355.309C1207.54 360.072 1198.01 362.453 1186.99 362.453Z" fill="#864626"/>
<path d="M1291.26 308.645C1291.26 320.851 1293.19 330.526 1297.06 337.671C1300.93 344.666 1306.44 348.164 1313.59 348.164C1319.24 348.164 1325.2 346.304 1331.45 342.582C1337.7 338.712 1343.06 333.28 1347.52 326.284C1349.91 326.581 1351.84 327.177 1353.33 328.07C1354.97 328.814 1355.78 330.228 1355.78 332.312C1351.47 340.201 1346.48 346.378 1340.83 350.843C1335.17 355.16 1329.44 358.137 1323.63 359.774C1317.98 361.56 1312.77 362.453 1308.01 362.453C1301.01 362.453 1294.39 360.593 1288.13 356.872C1281.88 353.151 1276.82 347.42 1272.95 339.68C1269.08 331.791 1267.15 321.818 1267.15 309.762C1267.15 299.343 1268.56 289.37 1271.39 279.844C1274.37 270.318 1278.61 261.833 1284.12 254.391C1289.77 246.949 1296.54 241.069 1304.43 236.753C1312.47 232.436 1321.55 230.278 1331.67 230.278C1339.41 230.278 1345.66 231.692 1350.43 234.52C1355.19 237.199 1358.69 240.772 1360.92 245.237C1363.15 249.553 1364.27 254.093 1364.27 258.856C1364.27 263.173 1363.38 267.341 1361.59 271.359C1359.8 275.229 1357.27 278.43 1354 280.96C1350.72 283.49 1346.85 284.756 1342.39 284.756C1340.9 284.756 1339.19 284.607 1337.25 284.309C1335.47 284.011 1333.76 283.49 1332.12 282.746C1334.5 280.216 1336.51 276.495 1338.15 271.583C1339.93 266.671 1340.83 261.908 1340.83 257.293C1340.83 253.126 1339.86 249.553 1337.92 246.577C1336.14 243.451 1332.86 241.888 1328.1 241.888C1322.44 241.888 1317.31 243.897 1312.69 247.916C1308.23 251.935 1304.36 257.219 1301.08 263.768C1297.96 270.318 1295.5 277.537 1293.72 285.425C1292.08 293.165 1291.26 300.905 1291.26 308.645ZM1352.44 168.879C1353.48 169.474 1354.74 170.516 1356.23 172.004C1357.87 173.344 1359.36 175.279 1360.7 177.809C1362.04 180.191 1362.78 183.317 1362.93 187.187C1354.3 192.694 1346.63 198.276 1339.93 203.932C1333.38 209.588 1327.73 215.244 1322.96 220.901C1319.84 220.305 1317.46 219.114 1315.82 217.328C1314.18 215.542 1312.77 213.235 1311.58 210.407C1310.54 207.579 1309.27 204.304 1307.78 200.583C1306.29 196.862 1304.21 192.843 1301.53 188.526C1298.85 184.21 1295.06 179.67 1290.14 174.907C1291.63 174.163 1293.19 173.567 1294.83 173.121C1296.62 172.674 1298.93 172.451 1301.75 172.451C1306.22 172.451 1309.79 173.567 1312.47 175.8C1315.3 178.033 1317.61 182.126 1319.39 188.08C1321.33 194.034 1323.11 202.518 1324.75 213.533L1320.06 206.165C1322.44 201.848 1324.97 197.755 1327.65 193.885C1330.48 190.015 1333.83 186.07 1337.7 182.052C1341.72 178.033 1346.63 173.642 1352.44 168.879Z" fill="#864626"/>
<path d="M1429.67 362.453C1421.78 362.453 1414.71 360.146 1408.46 355.532C1402.36 350.918 1397.52 344.517 1393.95 336.331C1390.52 327.996 1388.81 318.544 1388.81 307.976C1388.81 296.961 1390.37 286.765 1393.5 277.388C1396.77 267.862 1401.31 259.601 1407.12 252.605C1412.92 245.609 1419.7 240.176 1427.44 236.306C1435.33 232.287 1443.81 230.278 1452.89 230.278C1463.9 230.278 1472.24 233.032 1477.9 238.539C1483.55 244.046 1486.38 252.084 1486.38 262.652C1486.38 270.541 1484.22 277.685 1479.91 284.086C1475.59 290.337 1469.64 295.249 1462.04 298.822C1454.6 302.394 1446.04 304.18 1436.37 304.18C1431.6 304.18 1427.14 303.957 1422.97 303.51C1418.8 302.915 1414.79 302.171 1410.92 301.278L1411.58 293.463H1419.85C1428.48 293.463 1436 292.049 1442.4 289.221C1448.8 286.244 1453.78 282.076 1457.36 276.718C1460.93 271.359 1462.71 265.182 1462.71 258.187C1462.71 252.977 1461.45 248.958 1458.92 246.13C1456.54 243.302 1453.11 241.888 1448.65 241.888C1442.99 241.888 1437.93 244.046 1433.47 248.363C1429 252.53 1425.2 258.038 1422.08 264.885C1418.95 271.583 1416.57 278.802 1414.93 286.542C1413.3 294.282 1412.48 301.65 1412.48 308.645C1412.48 321.744 1414.41 331.642 1418.28 338.34C1422.3 344.89 1428.18 348.164 1435.92 348.164C1450.51 348.164 1462.49 340.871 1471.87 326.284C1477.38 327.177 1480.13 329.186 1480.13 332.312C1473.73 342.731 1466.43 350.397 1458.25 355.309C1450.21 360.072 1440.68 362.453 1429.67 362.453Z" fill="#864626"/>
<path d="M1543.54 281.853C1547.41 271.732 1552.17 262.801 1557.82 255.061C1563.63 247.321 1569.66 241.292 1575.91 236.976C1582.16 232.511 1587.97 230.278 1593.32 230.278C1602.11 230.278 1608.14 233.18 1611.41 238.985C1614.83 244.642 1616.54 252.307 1616.54 261.982C1616.54 269.127 1615.8 276.941 1614.31 285.425C1612.97 293.91 1611.56 302.617 1610.07 311.548C1608.58 320.479 1607.84 329.261 1607.84 337.894C1607.84 344.89 1608.88 350.099 1610.96 353.523C1613.05 356.797 1616.25 359.7 1620.56 362.23C1619.08 362.379 1617.66 362.453 1616.32 362.453C1614.98 362.453 1613.64 362.453 1612.3 362.453C1602.33 362.453 1595.19 360.593 1590.87 356.872C1586.55 353.151 1584.39 346.304 1584.39 336.331C1584.39 331.866 1584.84 326.805 1585.73 321.149C1586.63 315.344 1587.67 309.315 1588.86 303.064C1590.05 296.663 1591.09 290.337 1591.99 284.086C1592.88 277.685 1593.32 271.657 1593.32 266.001C1593.32 256.177 1590.35 251.265 1584.39 251.265C1580.23 251.265 1575.54 253.349 1570.33 257.517C1565.27 261.536 1560.36 267.341 1555.59 274.932C1550.98 282.523 1547.11 291.603 1543.98 302.171C1541.01 312.739 1539.52 324.423 1539.52 337.224C1539.52 340.647 1539.59 344.22 1539.74 347.941C1539.89 351.513 1540.26 355.234 1540.86 359.104C1539.37 359.253 1538.03 359.328 1536.84 359.328C1535.8 359.477 1534.83 359.551 1533.94 359.551C1527.53 359.551 1522.62 358.062 1519.2 355.086C1515.92 352.109 1514.29 347.197 1514.29 340.35C1514.29 337.075 1514.73 332.461 1515.63 326.507C1516.67 320.404 1517.79 313.557 1518.98 305.966C1520.17 298.375 1521.21 290.561 1522.1 282.523C1523.14 274.336 1523.66 266.522 1523.66 259.08C1523.66 253.275 1523.37 247.544 1522.77 241.888C1522.18 236.232 1521.21 230.799 1519.87 225.589C1529.1 229.31 1535.35 234.446 1538.62 240.995C1541.9 247.544 1543.54 255.135 1543.54 263.768C1543.54 266.596 1543.39 269.499 1543.09 272.476C1542.94 275.453 1542.64 278.504 1542.2 281.63L1543.54 281.853Z" fill="#864626"/>
<path d="M1677.94 339.457C1677.94 344.815 1678.16 349.504 1678.61 353.523C1679.06 357.393 1679.73 360.37 1680.62 362.453C1674.81 360.37 1670.2 357.616 1666.78 354.192C1663.5 350.62 1661.19 346.304 1659.85 341.243C1658.51 336.033 1657.84 329.782 1657.84 322.488C1657.84 315.939 1658.44 308.645 1659.63 300.608C1660.82 292.57 1662.01 284.384 1663.2 276.048C1664.39 267.713 1664.99 259.749 1664.99 252.158C1664.99 248.288 1664.91 244.493 1664.77 240.772C1664.77 236.902 1664.39 233.106 1663.65 229.385C1664.69 229.236 1665.81 229.161 1667 229.161C1668.19 229.013 1669.23 228.938 1670.12 228.938C1676.82 228.938 1681.66 230.427 1684.64 233.404C1687.61 236.381 1689.1 241.292 1689.1 248.139C1689.1 252.456 1688.21 259.154 1686.42 268.234C1684.64 277.313 1682.78 287.956 1680.84 300.161C1679.06 312.367 1678.09 325.465 1677.94 339.457ZM1650.48 213.533C1652.86 208.323 1656.28 202.667 1660.75 196.564C1665.36 190.461 1670.5 184.88 1676.15 179.819C1681.96 174.758 1687.61 171.111 1693.12 168.879C1694.16 169.474 1695.5 170.516 1697.14 172.004C1698.78 173.493 1700.27 175.428 1701.61 177.809C1702.95 180.191 1703.69 183.317 1703.84 187.187C1697.59 189.122 1691.48 192.024 1685.53 195.894C1679.58 199.764 1674.22 203.932 1669.45 208.397C1664.69 212.863 1660.75 217.031 1657.62 220.901C1655.84 220.454 1654.27 219.561 1652.93 218.221C1651.59 216.733 1650.77 215.17 1650.48 213.533Z" fill="#864626"/>
<path d="M1832.3 363.57C1818.9 363.57 1808.71 360.891 1801.71 355.532C1794.72 350.174 1791.22 343.699 1791.22 336.108C1791.22 329.707 1793 324.572 1796.58 320.702C1800.15 316.683 1804.47 314.674 1809.53 314.674C1810.72 314.674 1811.91 314.823 1813.1 315.12C1814.44 315.269 1815.78 315.716 1817.12 316.46C1815.63 318.395 1814.44 320.702 1813.55 323.381C1812.65 326.061 1812.21 328.665 1812.21 331.196C1812.21 336.405 1813.84 341.094 1817.12 345.262C1820.54 349.281 1825.75 351.29 1832.75 351.29C1836.17 351.29 1839.52 350.62 1842.79 349.281C1846.07 347.941 1848.75 345.932 1850.83 343.252C1853.06 340.573 1854.18 337.224 1854.18 333.205C1854.18 328.74 1852.92 324.795 1850.39 321.372C1848 317.948 1844.8 314.748 1840.78 311.771C1836.91 308.794 1832.82 305.817 1828.5 302.84C1824.19 299.864 1820.02 296.663 1816 293.24C1812.13 289.668 1808.93 285.649 1806.4 281.183C1804.02 276.569 1802.83 271.211 1802.83 265.108C1802.83 258.112 1804.61 251.935 1808.19 246.577C1811.91 241.069 1817.04 236.753 1823.59 233.627C1830.14 230.501 1837.88 228.938 1846.81 228.938C1854.85 228.938 1861.33 230.203 1866.24 232.734C1871.3 235.264 1874.94 238.539 1877.18 242.558C1879.41 246.428 1880.53 250.521 1880.53 254.838C1880.53 260.047 1879.04 264.81 1876.06 269.127C1873.08 273.294 1868.99 275.378 1863.78 275.378C1862.74 275.378 1861.47 275.229 1859.99 274.932C1858.65 274.485 1857.16 273.964 1855.52 273.369C1857.6 270.838 1859.09 268.01 1859.99 264.885C1860.88 261.759 1861.33 259.228 1861.33 257.293C1861.33 251.935 1859.54 247.916 1855.97 245.237C1852.39 242.558 1848.45 241.218 1844.13 241.218C1841.01 241.218 1837.88 241.888 1834.76 243.227C1831.78 244.418 1829.32 246.353 1827.39 249.032C1825.45 251.712 1824.49 255.061 1824.49 259.08C1824.49 263.843 1825.75 268.159 1828.28 272.029C1830.96 275.899 1834.31 279.472 1838.33 282.746C1842.35 286.021 1846.59 289.295 1851.06 292.57C1855.67 295.696 1859.99 298.97 1864 302.394C1868.02 305.817 1871.3 309.613 1873.83 313.781C1876.51 317.948 1877.85 322.637 1877.85 327.847C1877.85 334.842 1875.91 341.02 1872.04 346.378C1868.17 351.737 1862.81 355.979 1855.97 359.104C1849.12 362.081 1841.23 363.57 1832.3 363.57Z" fill="#864626"/>
<path d="M1074.04 709.755L1069.83 663.4C1095.4 644.858 1119.7 625.333 1142.73 604.825C1165.77 584.316 1186.56 563.526 1205.1 542.456C1223.93 521.385 1239.66 501.158 1252.3 481.773C1258.2 486.83 1262.98 493.994 1266.63 503.265C1270.56 512.536 1272.53 521.947 1272.53 531.499C1272.53 539.366 1270.7 547.372 1267.05 555.52C1263.68 563.386 1257.64 572.095 1248.93 581.647C1240.22 590.918 1228.28 601.594 1213.11 613.674C1198.22 625.474 1179.26 639.24 1156.22 654.972C1133.46 670.705 1106.07 688.966 1074.04 709.755ZM1104.39 830.278C1080.23 826.064 1062.24 820.867 1050.45 814.686C1038.65 808.506 1030.78 801.201 1026.85 792.773C1023.19 784.064 1021.37 774.091 1021.37 762.853C1021.37 754.144 1022.07 742.625 1023.48 728.297C1025.16 713.689 1027.13 697.394 1029.38 679.414C1031.62 661.434 1033.87 642.751 1036.12 623.367C1038.65 603.982 1040.61 584.878 1042.02 566.055C1043.7 547.232 1044.55 529.814 1044.55 513.8C1044.55 508.462 1044.41 502.843 1044.12 496.944C1043.84 491.044 1043.42 485.144 1042.86 479.245C1062.81 479.806 1078.26 481.352 1089.22 483.88C1100.45 486.408 1108.6 489.92 1113.66 494.415C1118.71 498.629 1121.8 503.686 1122.93 509.586C1124.33 515.205 1125.03 521.666 1125.03 528.971C1125.03 537.961 1124.05 550.322 1122.09 566.055C1120.4 581.787 1118.29 599.346 1115.76 618.731C1113.24 638.116 1110.71 657.922 1108.18 678.15C1105.65 698.377 1103.4 717.762 1101.44 736.304C1099.75 754.565 1098.91 770.579 1098.91 784.345C1098.91 805.415 1100.73 820.727 1104.39 830.278ZM1241.34 831.121C1226.17 831.121 1212.69 827.75 1200.89 821.007C1189.37 814.265 1179.12 805.134 1170.13 793.616C1161.14 781.816 1152.99 768.612 1145.68 754.003C1138.66 739.395 1132.2 724.083 1126.3 708.07C1120.4 691.775 1114.64 675.902 1109.02 660.451L1170.97 614.096C1177.43 635.728 1185.02 657.22 1193.72 678.571C1202.71 699.923 1212.27 720.15 1222.38 739.254C1232.49 758.077 1242.61 775.074 1252.72 790.245C1262.84 805.415 1272.53 817.636 1281.8 826.907C1273.65 828.312 1266.07 829.295 1259.04 829.857C1252.3 830.7 1246.4 831.121 1241.34 831.121Z" fill="#864626"/>
<path d="M1530.56 826.064C1513.71 826.064 1499.24 823.115 1487.16 817.215C1475.08 811.596 1465.81 803.308 1459.34 792.352C1453.16 781.395 1450.07 768.331 1450.07 753.161C1450.07 750.632 1450.07 748.244 1450.07 745.997C1450.35 743.749 1450.64 740.659 1450.92 736.726L1448.81 736.304C1442.91 754.565 1435.6 769.736 1426.9 781.816C1418.47 793.616 1408.78 802.465 1397.82 808.365C1386.86 814.265 1374.5 817.215 1360.73 817.215C1349.22 817.215 1339.66 815.108 1332.08 810.894C1324.49 806.68 1318.87 800.218 1315.22 791.509C1311.57 782.8 1309.74 771.843 1309.74 758.639C1309.74 745.435 1311.15 730.826 1313.96 714.812C1316.77 698.799 1319.58 682.785 1322.39 666.772C1325.2 650.477 1326.6 635.728 1326.6 622.524C1326.6 614.657 1326.18 606.932 1325.34 599.346C1324.77 591.761 1323.37 584.035 1321.12 576.169C1339.66 576.169 1355.4 577.292 1368.32 579.54C1381.52 581.787 1391.5 586.142 1398.24 592.604C1405.26 598.784 1408.78 608.336 1408.78 621.259C1408.78 631.654 1407.37 644.016 1404.56 658.343C1401.75 672.671 1398.94 687.28 1396.13 702.17C1393.32 717.06 1391.92 730.545 1391.92 742.625C1391.92 752.458 1393.04 760.044 1395.29 765.381C1397.54 770.719 1400.91 773.388 1405.4 773.388C1410.74 773.388 1415.8 770.579 1420.57 764.96C1425.63 759.06 1430.27 750.913 1434.48 740.518C1438.7 730.124 1442.35 718.184 1445.44 704.699C1448.53 690.932 1450.92 676.183 1452.6 660.451C1454.57 644.437 1455.55 628.002 1455.55 611.146C1455.55 603.841 1455.27 597.52 1454.71 592.182C1454.43 586.563 1453.87 581.928 1453.02 578.276C1460.61 576.309 1467.35 575.045 1473.25 574.483C1479.43 573.64 1485.19 573.219 1490.53 573.219C1502.33 573.219 1511.88 574.483 1519.18 577.011C1526.77 579.54 1532.25 583.473 1535.62 588.811C1539.27 593.868 1541.1 600.61 1541.1 609.039C1541.1 615.5 1540.11 624.49 1538.15 636.009C1536.46 647.246 1534.5 660.029 1532.25 674.357C1530 688.685 1527.89 703.575 1525.93 719.026C1524.24 734.478 1523.4 749.508 1523.4 764.117C1523.4 775.074 1523.96 785.89 1525.08 796.566C1526.49 807.241 1528.31 817.074 1530.56 826.064Z" fill="#864626"/>
<path d="M1588.31 751.054C1588.31 742.625 1589.3 730.404 1591.26 714.391C1593.23 698.096 1595.62 679.695 1598.43 659.186C1601.24 638.678 1603.9 617.467 1606.43 595.553C1609.24 573.359 1611.63 552.008 1613.6 531.499C1615.56 510.71 1616.55 492.308 1616.55 476.295C1616.55 464.776 1616.13 454.803 1615.28 446.375C1614.44 437.665 1613.18 431.204 1611.49 426.99C1632.84 426.99 1649.28 430.361 1660.79 437.104C1672.31 443.846 1680.32 452.836 1684.81 464.074C1689.31 475.311 1691.56 487.532 1691.56 500.736C1691.56 513.66 1690.29 530.516 1687.76 551.306C1685.24 572.095 1682.43 595.413 1679.34 621.259C1676.25 647.106 1673.44 674.076 1670.91 702.17C1668.38 730.264 1667.12 758.077 1667.12 785.609C1667.12 792.071 1667.26 798.532 1667.54 804.994C1668.1 811.175 1668.52 817.355 1668.8 823.536C1649.14 823.536 1633.68 821.71 1622.45 818.058C1611.49 814.686 1603.48 809.77 1598.43 803.308C1593.65 796.847 1590.7 789.261 1589.58 780.552C1588.45 771.562 1588.03 761.729 1588.31 751.054Z" fill="#864626"/>
<path d="M1884.51 764.96C1878.61 777.321 1871.16 787.716 1862.17 796.144C1853.46 804.573 1843.63 811.034 1832.67 815.529C1822 819.743 1810.76 821.85 1798.96 821.85C1787.16 821.85 1776.06 818.9 1765.67 813.001C1755.27 807.101 1746.85 797.689 1740.38 784.766C1733.92 771.562 1730.69 754.284 1730.69 732.933C1730.69 711.301 1734.06 691.213 1740.81 672.671C1747.83 653.848 1757.52 637.413 1769.88 623.367C1782.53 609.039 1797.28 597.941 1814.13 590.075C1831.27 582.209 1849.95 578.276 1870.18 578.276C1878.61 578.276 1887.32 579.399 1896.31 581.647C1905.3 583.614 1913.3 586.282 1920.33 589.654C1901.78 594.711 1885.91 602.577 1872.71 613.253C1859.78 623.647 1849.25 635.868 1841.1 649.915C1833.24 663.681 1827.48 678.009 1823.82 692.899C1820.17 707.508 1818.35 721.414 1818.35 734.619C1818.35 743.328 1819.05 751.334 1820.45 758.639C1822.14 765.662 1824.53 771.422 1827.62 775.917C1830.99 780.131 1835.34 782.238 1840.68 782.238C1848.83 782.238 1855.99 778.164 1862.17 770.017C1868.63 761.87 1874.25 750.913 1879.03 737.147C1883.8 723.1 1887.88 707.367 1891.25 689.949C1894.62 672.25 1897.29 653.989 1899.26 635.166C1901.5 616.062 1903.19 597.38 1904.31 579.119C1905.72 560.577 1906.56 543.58 1906.84 528.128C1907.4 512.395 1907.68 499.332 1907.68 488.937C1907.68 474.047 1907.12 460.422 1906 448.06C1905.16 435.418 1903.19 424.04 1900.1 413.926C1921.17 413.926 1937.46 418.14 1948.98 426.568C1960.5 434.716 1968.51 445.672 1973 459.438C1977.78 473.204 1980.17 488.094 1980.17 504.108C1980.17 519.559 1978.76 537.259 1975.95 557.205C1973.14 577.152 1969.77 598.644 1965.84 621.681C1962.19 644.437 1958.96 668.036 1956.15 692.478C1953.34 716.638 1951.93 740.799 1951.93 764.96C1951.93 785.469 1953.2 805.415 1955.72 824.8C1938.03 824.8 1924.26 821.85 1914.43 815.951C1904.59 809.77 1897.57 802.185 1893.36 793.194C1889.42 783.923 1887.18 774.652 1886.61 765.381L1884.51 764.96Z" fill="#864626"/>
<path d="M2112.3 823.536C2100.22 823.536 2088.28 821.429 2076.48 817.215C2064.68 812.72 2054 805.977 2044.45 796.987C2034.9 787.997 2027.17 776.619 2021.27 762.853C2015.66 748.806 2012.85 732.231 2012.85 713.127C2012.85 689.809 2017.06 668.036 2025.49 647.808C2034.2 627.581 2046.28 610.443 2061.73 596.396C2077.18 582.349 2095.44 572.938 2116.51 568.162C2119.6 568.162 2122.41 569.005 2124.94 570.69C2127.47 572.376 2128.87 574.343 2129.15 576.59C2120.45 582.771 2112.02 592.042 2103.87 604.403C2096 616.764 2090.39 632.638 2087.01 652.022L2089.54 652.444C2096.57 632.216 2104.99 616.483 2114.83 605.246C2124.94 594.008 2135.19 586.282 2145.59 582.068C2156.27 577.573 2165.82 575.326 2174.25 575.326C2188.29 575.326 2200.79 578.978 2211.75 586.282C2222.71 593.587 2231.42 604.122 2237.88 617.888C2244.34 631.373 2247.57 647.668 2247.57 666.772C2247.57 684.752 2245.04 703.013 2239.99 721.555C2234.93 739.816 2226.92 756.672 2215.96 772.124C2205.01 787.576 2190.96 800.077 2173.82 809.629C2156.97 818.9 2136.46 823.536 2112.3 823.536ZM2122.41 793.194C2130 793.194 2136.74 789.683 2142.64 782.659C2148.82 775.636 2154.02 766.365 2158.23 754.846C2162.45 743.047 2165.68 730.124 2167.92 716.077C2170.17 701.749 2171.3 687.561 2171.3 673.514C2171.3 648.511 2168.91 631.092 2164.13 621.259C2159.36 611.146 2153.32 606.089 2146.01 606.089C2138.99 606.089 2132.1 609.6 2125.36 616.624C2118.9 623.367 2113.14 632.357 2108.08 643.594C2103.31 654.832 2099.38 667.334 2096.28 681.1C2093.48 694.585 2092.07 707.929 2092.07 721.133C2092.07 734.338 2093.05 746.418 2095.02 757.375C2096.99 768.331 2100.22 777.04 2104.71 783.502C2109.21 789.964 2115.11 793.194 2122.41 793.194Z" fill="#864626"/>
<path d="M2510.83 826.064C2493.98 826.064 2479.51 823.115 2467.43 817.215C2455.35 811.596 2446.08 803.308 2439.61 792.352C2433.43 781.395 2430.34 768.331 2430.34 753.161C2430.34 750.632 2430.34 748.244 2430.34 745.997C2430.62 743.749 2430.91 740.659 2431.19 736.726L2429.08 736.304C2423.18 754.565 2415.88 769.736 2407.17 781.816C2398.74 793.616 2389.05 802.465 2378.09 808.365C2367.13 814.265 2354.77 817.215 2341.01 817.215C2329.49 817.215 2319.93 815.108 2312.35 810.894C2304.76 806.68 2299.15 800.218 2295.49 791.509C2291.84 782.8 2290.01 771.843 2290.01 758.639C2290.01 745.435 2291.42 730.826 2294.23 714.812C2297.04 698.799 2299.85 682.785 2302.66 666.772C2305.47 650.477 2306.87 635.728 2306.87 622.524C2306.87 614.657 2306.45 606.932 2305.61 599.346C2305.04 591.761 2303.64 584.035 2301.39 576.169C2319.93 576.169 2335.67 577.292 2348.59 579.54C2361.79 581.787 2371.77 586.142 2378.51 592.604C2385.53 598.784 2389.05 608.336 2389.05 621.259C2389.05 631.654 2387.64 644.016 2384.83 658.343C2382.02 672.671 2379.21 687.28 2376.4 702.17C2373.59 717.06 2372.19 730.545 2372.19 742.625C2372.19 752.458 2373.31 760.044 2375.56 765.381C2377.81 770.719 2381.18 773.388 2385.67 773.388C2391.01 773.388 2396.07 770.579 2400.85 764.96C2405.9 759.06 2410.54 750.913 2414.75 740.518C2418.97 730.124 2422.62 718.184 2425.71 704.699C2428.8 690.932 2431.19 676.183 2432.87 660.451C2434.84 644.437 2435.82 628.002 2435.82 611.146C2435.82 603.841 2435.54 597.52 2434.98 592.182C2434.7 586.563 2434.14 581.928 2433.29 578.276C2440.88 576.309 2447.62 575.045 2453.52 574.483C2459.7 573.64 2465.46 573.219 2470.8 573.219C2482.6 573.219 2492.15 574.483 2499.46 577.011C2507.04 579.54 2512.52 583.473 2515.89 588.811C2519.54 593.868 2521.37 600.61 2521.37 609.039C2521.37 615.5 2520.38 624.49 2518.42 636.009C2516.73 647.246 2514.77 660.029 2512.52 674.357C2510.27 688.685 2508.16 703.575 2506.2 719.026C2504.51 734.478 2503.67 749.508 2503.67 764.117C2503.67 775.074 2504.23 785.89 2505.35 796.566C2506.76 807.241 2508.59 817.074 2510.83 826.064Z" fill="#864626"/>
<path d="M364.666 129.715C427.595 77.2139 540.904 70.6728 654.804 112.849C768.704 155.025 849.68 233.463 862.232 313.869L862.129 313.831C873.634 319.085 883.309 327.64 889.966 338.446C896.623 349.252 899.973 361.84 899.605 374.665C899.237 387.49 895.167 399.994 887.894 410.644C880.622 421.295 870.462 429.628 858.662 434.622C846.863 439.616 833.935 441.053 821.467 438.758C808.998 436.462 797.529 430.534 788.468 421.7C779.407 412.865 773.147 401.51 770.455 389.025C767.764 376.54 768.759 363.47 773.318 351.417C767.087 367.847 754.682 381.225 738.833 388.606C722.984 395.987 704.989 396.767 688.806 390.774C672.623 384.782 659.579 372.509 652.543 356.653C645.506 340.798 645.054 322.66 651.285 306.229C645.054 322.66 632.649 336.037 616.8 343.418C600.951 350.799 582.955 351.579 566.773 345.587C550.59 339.595 537.546 327.321 530.509 311.465C523.473 295.61 523.021 277.472 529.252 261.042C523.021 277.47 510.618 290.846 494.771 298.226C478.923 305.607 460.93 306.387 444.749 300.395C428.568 294.403 415.525 282.131 408.489 266.277C401.453 250.424 401.001 232.288 407.232 215.859C402.662 227.879 394.743 238.359 384.443 246.018C374.143 253.678 361.906 258.185 349.23 258.99C336.553 259.794 323.984 256.862 313.058 250.55C302.132 244.238 293.323 234.82 287.706 223.447C282.089 212.073 279.908 199.237 281.429 186.506C282.95 173.774 288.107 161.699 296.271 151.755C304.434 141.811 315.25 134.429 327.398 130.51C339.546 126.592 352.499 126.306 364.676 129.689L364.666 129.715Z" stroke="#864626" stroke-width="32.6278" stroke-linecap="round" stroke-linejoin="round"/>
<path d="M638.778 174.844L625.933 199.908" stroke="#864626" stroke-width="32.6278" stroke-linecap="round" stroke-linejoin="round"/>
<path d="M566.69 142.398L521.797 157.585" stroke="#864626" stroke-width="32.6278" stroke-linecap="round" stroke-linejoin="round"/>
<path d="M709.09 205.435L731.869 244.096" stroke="#864626" stroke-width="32.6278" stroke-linecap="round" stroke-linejoin="round"/>
<path d="M303.609 244.484L299.168 359.455C298.959 362.552 299.708 365.623 301.301 368.213C302.895 370.803 305.249 372.774 308.015 373.833L713.065 528.983C715.83 530.043 718.859 530.134 721.702 529.243C724.545 528.352 727.051 526.528 728.846 524.039L796.93 433.514" stroke="#864626" stroke-width="32.6278" stroke-linecap="round" stroke-linejoin="round"/>
<path d="M356.776 638.802C389.695 639.402 413.27 616.452 424.709 590.45C429.315 578.098 428.239 564.306 429.181 551.431C430.582 539.69 436.537 530.571 448.972 525.885C484.484 510.137 519.631 550.633 491.649 580.365C499.486 583.967 507.057 583.127 514.227 579.88C551.779 565.441 556.659 523.098 538.707 493.697C529.767 474.534 507.651 456.545 514.038 452.138C517.63 449.6 545.434 475.119 549.119 477.357C605.397 511.533 628.394 567.365 612.353 628.555C605.523 668.347 547.559 733.79 501.061 725.478C492.463 723.018 489.349 714.663 494.779 707.886C499.255 702.298 505.047 697.508 510.691 692.811C528.979 679.283 526.322 643.247 498.972 645.172C492.06 645.52 486.76 648.335 482.987 653.708C460.687 685.827 489.688 716.979 460.154 750.194C451.52 767.396 387.745 799.815 376.332 778.787C374.678 774.675 375.694 770.777 379.051 767.778C388.109 759.654 400.223 754.189 405.241 742.925C413.416 727.508 398.609 705.37 380.024 705.91C362.344 706.424 341.547 715.068 341.916 739.496C342.048 748.218 341.696 756.954 341.75 765.678C345.686 858.992 190.409 873.923 209.7 835.436C223.651 820.109 246.874 814.377 258.971 797.012C264.17 791.04 266.158 784.053 265.924 776.444C257.217 693.813 201.46 677.129 291.929 604.948C298.865 598.861 300.688 589.675 289.14 587.76C262.269 582.255 251.865 610.794 240.043 627.408C237.4 631.195 233.939 633.632 228.809 632.694C223.837 631.784 221.42 628.383 221.466 624.164C221.577 614.028 221.63 603.827 222.886 593.755C229.969 536.933 257.492 490.006 306.356 453.786C323.459 441.11 342.973 432.68 364.369 428.943C378.58 426.462 393.032 423.96 407.431 422.962C416.597 422.327 434.039 414.8 434.932 420.053C440.014 436.761 338.014 471.639 360.764 524.263C382.293 564.125 398.989 602.261 356.776 638.802Z" fill="#864626"/>
<path d="M178.947 657.154C197.893 669.532 178.759 684.933 162.479 688.928C126.017 699.526 89.6864 710.84 52.7272 719.761C42.5163 722.364 29.6783 718.956 29.1621 707.679C28.6271 701.72 32.5874 695.357 39.1821 692.69C80.1363 679.901 121.798 668.92 162.977 656.725C168.431 655.153 173.763 654.411 178.947 657.154Z" fill="#864626"/>
<path d="M429.983 962.784C425.249 960.251 422.518 954.404 420.867 947.951C413.078 913.407 400.895 879.418 396.799 844.247C396.537 830.474 416.874 825.312 423.607 837.574C436.833 870.021 443.737 904.832 453.239 938.45C458.197 953.182 450.563 972.265 429.983 962.784Z" fill="#864626"/>
<path d="M586.191 739.123C599.461 750.367 612.925 761.423 626.274 772.581C640.246 783.135 628.635 805.247 610.732 798.584C607.824 797.393 604.994 795.699 602.699 793.683C589.744 781.538 575.039 770.645 563.492 757.356C554.723 743.979 572.566 730.96 585.541 739.793C585.758 739.57 585.975 739.347 586.191 739.123Z" fill="#864626"/>
<path d="M126.071 570.981C110.41 563.141 116.879 541.452 134.902 542.313C150.101 544.386 164.681 549.556 179.533 553.083C188.051 555.387 192.754 562.126 191.164 569.139C189.21 579.925 175.282 582.239 165.034 579.316C152.01 576.677 138.778 574.695 126.071 570.981Z" fill="#864626"/>
<path d="M158.658 790.562C130.273 770.523 179.427 753.197 194.914 742.899C201.683 739.216 209.119 741.245 212.958 746.163C219.492 753.753 212.503 763.961 204.346 769.103C191.577 776.61 174.255 798.172 158.658 790.562Z" fill="#864626"/>
<path d="M498.755 790.948C509.68 799.854 516.742 812.556 524.903 823.63C529.651 831.027 526.437 839.949 519.146 844.176C512.04 848.294 502.132 847.223 497.176 840.195C489.889 829.861 483.217 819.027 477.649 807.809C471.753 793.653 485.623 786.692 498.726 790.027C498.736 790.334 498.746 790.64 498.755 790.948Z" fill="#864626"/>
</g>
<defs>
<clipPath id="clip0_2_2">
<rect width="2522" height="1000" fill="white"/>
</clipPath>
</defs>
</svg>
