<svg width="1001" height="1000" viewBox="0 0 1001 1000" fill="none" xmlns="http://www.w3.org/2000/svg">
<g clip-path="url(#clip0_1_2)">
<path d="M364.455 129.463C427.228 77.1944 540.52 70.8827 654.551 113.184C768.581 155.485 849.796 233.907 862.591 314.164L862.487 314.125C874.009 319.39 883.71 327.945 890.4 338.741C897.09 349.536 900.478 362.103 900.149 374.899C899.819 387.695 895.787 400.165 888.546 410.778C881.305 421.392 871.17 429.688 859.385 434.649C847.6 439.609 834.677 441.019 822.201 438.705C809.724 436.391 798.238 430.453 789.149 421.621C780.061 412.789 773.767 401.445 771.038 388.983C768.309 376.52 769.265 363.48 773.787 351.461C767.605 367.844 755.241 381.169 739.413 388.504C723.586 395.839 705.593 396.583 689.392 390.573C673.19 384.563 660.109 372.291 653.024 356.457C645.94 340.622 645.433 322.523 651.615 306.139C645.433 322.523 633.068 335.847 617.24 343.182C601.413 350.517 583.42 351.262 567.218 345.252C551.017 339.241 537.936 326.969 530.851 311.135C523.766 295.301 523.26 277.201 529.442 260.818C523.26 277.199 510.897 290.522 495.071 297.857C479.246 305.191 461.254 305.935 445.055 299.926C428.855 293.916 415.775 281.645 408.691 265.813C401.607 249.98 401.1 231.882 407.282 215.501C402.748 227.486 394.861 237.928 384.583 245.552C374.306 253.175 362.083 257.649 349.408 258.428C336.733 259.207 324.155 256.257 313.21 249.938C302.265 243.619 293.427 234.205 287.776 222.845C282.124 211.486 279.904 198.673 281.387 185.972C282.87 173.271 287.991 161.232 296.124 151.325C304.258 141.418 315.052 134.072 327.189 130.185C339.325 126.298 352.278 126.038 364.465 129.437L364.455 129.463Z" stroke="#864626" stroke-width="32.6278" stroke-linecap="round" stroke-linejoin="round"/>
<path d="M638.874 174.844L626.029 199.908" stroke="#864626" stroke-width="32.6278" stroke-linecap="round" stroke-linejoin="round"/>
<path d="M566.786 142.45L521.894 157.534" stroke="#864626" stroke-width="32.6278" stroke-linecap="round" stroke-linejoin="round"/>
<path d="M709.117 205.435L732.036 244.096" stroke="#864626" stroke-width="32.6278" stroke-linecap="round" stroke-linejoin="round"/>
<path d="M303.35 244.484L299.257 359.118C299.058 362.205 299.815 365.269 301.416 367.855C303.017 370.441 305.376 372.41 308.144 373.471L713.486 528.948C716.253 530.01 719.281 530.106 722.12 529.224C724.959 528.341 727.458 526.526 729.245 524.048L797.026 433.911" stroke="#864626" stroke-width="32.6278" stroke-linecap="round" stroke-linejoin="round"/>
<path d="M356.873 638.802C389.791 639.402 413.367 616.452 424.805 590.45C429.411 578.098 428.335 564.306 429.277 551.431C430.678 539.69 436.634 530.571 449.069 525.885C484.58 510.137 519.727 550.633 491.746 580.365C499.582 583.967 507.154 583.127 514.323 579.88C551.875 565.441 556.755 523.098 538.804 493.697C529.864 474.534 507.747 456.545 514.134 452.138C517.727 449.6 545.531 475.119 549.216 477.357C605.493 511.533 628.491 567.365 612.45 628.555C605.619 668.347 547.655 733.79 501.158 725.478C492.559 723.018 489.446 714.663 494.875 707.886C499.352 702.298 505.143 697.508 510.788 692.811C529.076 679.283 526.418 643.247 499.068 645.172C492.157 645.52 486.856 648.335 483.084 653.708C460.783 685.827 489.785 716.979 460.251 750.194C451.617 767.396 387.842 799.815 376.428 778.787C374.774 774.675 375.791 770.777 379.148 767.778C388.206 759.654 400.32 754.189 405.337 742.925C413.512 727.508 398.706 705.37 380.12 705.91C362.44 706.424 341.644 715.068 342.013 739.496C342.144 748.218 341.792 756.954 341.847 765.678C345.783 858.992 190.506 873.923 209.796 835.436C223.747 820.109 246.97 814.377 259.067 797.012C264.267 791.04 266.254 784.053 266.021 776.444C257.314 693.813 201.557 677.129 292.026 604.948C298.961 598.861 300.784 589.675 289.236 587.76C262.366 582.255 251.962 610.794 240.14 627.408C237.496 631.195 234.035 633.632 228.906 632.694C223.934 631.784 221.517 628.383 221.563 624.164C221.673 614.028 221.727 603.827 222.983 593.755C230.066 536.933 257.588 490.006 306.452 453.786C323.556 441.11 343.069 432.68 364.466 428.943C378.677 426.462 393.128 423.96 407.528 422.962C416.693 422.327 434.136 414.8 435.029 420.053C440.11 436.761 338.11 471.639 360.86 524.263C382.39 564.125 399.085 602.261 356.873 638.802Z" fill="#864626"/>
<path d="M179.043 657.154C197.989 669.532 178.855 684.933 162.575 688.928C126.114 699.526 89.7829 710.84 52.8237 719.761C42.6128 722.364 29.7747 718.956 29.2585 707.679C28.7236 701.72 32.6839 695.357 39.2785 692.69C80.2327 679.901 121.895 668.92 163.074 656.725C168.527 655.153 173.859 654.411 179.043 657.154Z" fill="#864626"/>
<path d="M430.08 962.784C425.345 960.251 422.615 954.404 420.963 947.951C413.174 913.407 400.991 879.418 396.895 844.247C396.633 830.474 416.97 825.312 423.704 837.574C436.93 870.021 443.833 904.832 453.335 938.45C458.293 953.182 450.66 972.265 430.08 962.784Z" fill="#864626"/>
<path d="M586.288 739.123C599.557 750.367 613.022 761.423 626.37 772.581C640.343 783.135 628.731 805.247 610.828 798.584C607.92 797.393 605.09 795.699 602.795 793.683C589.841 781.538 575.136 770.645 563.589 757.356C554.819 743.979 572.663 730.96 585.637 739.793C585.855 739.57 586.071 739.347 586.288 739.123Z" fill="#864626"/>
<path d="M126.167 570.981C110.506 563.141 116.975 541.452 134.999 542.313C150.197 544.386 164.778 549.556 179.63 553.083C188.147 555.387 192.85 562.126 191.261 569.139C189.306 579.925 175.378 582.239 165.13 579.316C152.106 576.677 138.875 574.695 126.167 570.981Z" fill="#864626"/>
<path d="M158.755 790.562C130.37 770.523 179.523 753.197 195.01 742.899C201.78 739.216 209.215 741.245 213.055 746.163C219.589 753.753 212.599 763.961 204.442 769.103C191.674 776.61 174.352 798.172 158.755 790.562Z" fill="#864626"/>
<path d="M498.851 790.948C509.777 799.854 516.839 812.556 525 823.63C529.747 831.027 526.534 839.949 519.242 844.176C512.137 848.294 502.229 847.223 497.273 840.195C489.986 829.861 483.314 819.027 477.746 807.809C471.849 793.653 485.719 786.692 498.822 790.027C498.833 790.334 498.842 790.64 498.851 790.948Z" fill="#864626"/>
</g>
<defs>
<clipPath id="clip0_1_2">
<rect width="1000" height="1000" fill="white" transform="translate(0.0963898)"/>
</clipPath>
</defs>
</svg>
